<?xml version="1.0" standalone="no"?><svg xmlns="http://www.w3.org/2000/svg" viewBox="0 0 1440 320"><path fill="#5000ca" fill-opacity="0.3" d="M0,0L10.4,37.3C20.9,75,42,149,63,197.3C83.5,245,104,267,125,245.3C146.1,224,167,160,188,112C208.7,64,230,32,250,64C271.3,96,292,192,313,202.7C333.9,213,355,139,376,122.7C396.5,107,417,149,438,186.7C459.1,224,480,256,501,250.7C521.7,245,543,203,563,154.7C584.3,107,605,53,626,42.7C647,32,668,64,689,90.7C709.6,117,730,139,751,138.7C772.2,139,793,117,814,106.7C834.8,96,856,96,877,80C897.4,64,918,32,939,42.7C960,53,981,107,1002,122.7C1022.6,139,1043,117,1064,101.3C1085.2,85,1106,75,1127,101.3C1147.8,128,1169,192,1190,181.3C1210.4,171,1231,85,1252,90.7C1273,96,1294,192,1315,240C1335.7,288,1357,288,1377,288C1398.3,288,1419,288,1430,288L1440,288L1440,0L1429.6,0C1419.1,0,1398,0,1377,0C1356.5,0,1336,0,1315,0C1293.9,0,1273,0,1252,0C1231.3,0,1210,0,1190,0C1168.7,0,1148,0,1127,0C1106.1,0,1085,0,1064,0C1043.5,0,1023,0,1002,0C980.9,0,960,0,939,0C918.3,0,897,0,877,0C855.7,0,835,0,814,0C793,0,772,0,751,0C730.4,0,710,0,689,0C667.8,0,647,0,626,0C605.2,0,584,0,563,0C542.6,0,522,0,501,0C480,0,459,0,438,0C417.4,0,397,0,376,0C354.8,0,334,0,313,0C292.2,0,271,0,250,0C229.6,0,209,0,188,0C167,0,146,0,125,0C104.3,0,83,0,63,0C41.7,0,21,0,10,0L0,0Z"></path></svg>